<?xml version="1.0" encoding="UTF-8" standalone="no"?>
<!DOCTYPE svg PUBLIC "-//W3C//DTD SVG 1.1//EN" "http://www.w3.org/Graphics/SVG/1.1/DTD/svg11.dtd">
<svg width="100%" height="100%" viewBox="0 0 427 427" version="1.1" xmlns="http://www.w3.org/2000/svg" xmlns:xlink="http://www.w3.org/1999/xlink" xml:space="preserve" xmlns:serif="http://www.serif.com/" style="fill-rule:evenodd;clip-rule:evenodd;stroke-linejoin:round;stroke-miterlimit:2;">
    <g transform="matrix(1,0,0,1,-203.354,-121.362)">
        <g transform="matrix(4.16667,0,0,4.16667,0,0)">
            <path d="M113.236,93.59L113.236,88.369L108.015,93.59L113.236,93.59Z" style="fill:rgb(40,179,74);fill-rule:nonzero;"/>
            <path d="M68.869,111.501C66.604,109.235 65.218,106.418 64.706,103.477C64.651,103.157 64.605,102.835 64.569,102.512C64.535,102.194 64.509,101.875 64.494,101.555C64.388,99.145 64.858,96.715 65.903,94.49C66.029,94.22 66.167,93.954 66.311,93.69C66.456,93.423 66.611,93.159 66.776,92.899C67.361,91.965 68.057,91.08 68.869,90.268L72.202,86.935L67.147,81.88L63.814,85.212C62.681,86.344 61.701,87.572 60.865,88.867C60.695,89.129 60.529,89.393 60.372,89.661C60.212,89.935 60.059,90.211 59.911,90.489C58.663,92.843 57.871,95.376 57.529,97.958C57.484,98.303 57.446,98.649 57.417,98.996C57.387,99.345 57.365,99.695 57.353,100.044C57.129,105.996 59.279,112.023 63.814,116.557C68.135,120.878 73.811,123.038 79.486,123.038C79.767,123.038 80.046,123.029 80.326,123.018C78.761,120.771 77.604,118.289 76.893,115.664C73.952,115.152 71.136,113.767 68.869,111.501Z" style="fill:rgb(40,179,74);fill-rule:nonzero;"/>
            <path d="M90.103,111.501C89.291,112.313 88.406,113.009 87.472,113.595C88.255,115.92 89.666,117.958 91.504,119.505C92.799,118.67 94.027,117.689 95.158,116.557L98.491,113.224L107.402,104.314L97.29,104.314L94.952,106.652L93.436,108.169L92.088,109.517L90.103,111.501Z" style="fill:rgb(40,179,74);fill-rule:nonzero;"/>
            <path d="M135.31,103.477C134.798,106.418 133.414,109.235 131.147,111.501C128.881,113.767 126.064,115.152 123.124,115.664C122.803,115.719 122.481,115.766 122.158,115.801C121.839,115.835 121.521,115.862 121.201,115.876C120.977,115.885 120.754,115.892 120.53,115.892C118.342,115.892 116.155,115.416 114.135,114.468C113.866,114.341 113.599,114.204 113.336,114.06C113.069,113.915 112.806,113.76 112.547,113.597C111.612,113.01 110.726,112.314 109.914,111.501L106.581,108.169L101.525,113.224L104.858,116.557C105.991,117.689 107.217,118.669 108.511,119.505C108.775,119.675 109.039,119.841 109.307,119.999C109.581,120.159 109.857,120.312 110.135,120.46C112.489,121.708 115.022,122.5 117.604,122.841C117.949,122.886 118.295,122.924 118.641,122.954C118.991,122.983 119.34,123.005 119.69,123.018C119.97,123.029 120.251,123.038 120.53,123.038C126.207,123.038 131.882,120.878 136.203,116.557C140.737,112.023 142.888,105.996 142.665,100.044C140.417,101.61 137.935,102.766 135.31,103.477Z" style="fill:rgb(40,179,74);fill-rule:nonzero;"/>
            <path d="M113.236,67.136L108.015,67.136L113.236,72.356L113.236,67.136Z" style="fill:rgb(40,179,74);fill-rule:nonzero;"/>
            <path d="M131.147,90.268C131.961,91.081 132.656,91.967 133.244,92.902C135.155,92.259 136.909,91.181 138.379,89.711C138.651,89.439 138.906,89.156 139.151,88.866C138.315,87.572 137.336,86.344 136.203,85.212L132.871,81.88L123.961,72.969L123.961,83.081L127.815,86.935L131.147,90.268Z" style="fill:rgb(40,179,74);fill-rule:nonzero;"/>
            <path d="M64.706,57.248C65.218,54.307 66.604,51.49 68.869,49.224C71.136,46.958 73.952,45.573 76.893,45.061C77.214,45.006 77.535,44.96 77.859,44.925C78.177,44.89 78.496,44.863 78.816,44.849C79.039,44.84 79.263,44.834 79.486,44.834C81.674,44.834 83.862,45.309 85.881,46.257C86.152,46.384 86.417,46.522 86.681,46.665C86.947,46.811 87.21,46.965 87.47,47.128C88.404,47.715 89.29,48.411 90.103,49.224L93.436,52.557L98.491,47.501L95.158,44.169C94.027,43.036 92.799,42.056 91.505,41.22C91.242,41.05 90.978,40.884 90.709,40.727C90.437,40.566 90.16,40.413 89.882,40.266C87.528,39.017 84.995,38.225 82.413,37.884C82.068,37.839 81.722,37.801 81.375,37.771C81.026,37.742 80.677,37.72 80.326,37.707C80.046,37.696 79.767,37.687 79.486,37.687C73.811,37.687 68.135,39.848 63.814,44.169C59.279,48.703 57.129,54.729 57.353,60.681C59.6,59.115 62.081,57.959 64.706,57.248Z" style="fill:rgb(40,179,74);fill-rule:nonzero;"/>
            <path d="M68.869,70.458C68.057,69.645 67.361,68.759 66.774,67.824C64.862,68.467 63.108,69.545 61.638,71.015C61.366,71.286 61.111,71.57 60.865,71.86C61.701,73.154 62.682,74.381 63.814,75.513L65.667,77.367L72.479,84.178L73.719,85.419L76.057,87.756L76.057,77.645L70.723,72.312L68.869,70.458Z" style="fill:rgb(40,179,74);fill-rule:nonzero;"/>
            <path d="M86.781,93.59L92.001,93.59L86.781,88.369L86.781,93.59Z" style="fill:rgb(40,179,74);fill-rule:nonzero;"/>
            <path d="M86.781,67.136L86.781,72.356L92.001,67.136L86.781,67.136Z" style="fill:rgb(40,179,74);fill-rule:nonzero;"/>
            <path d="M112.547,47.128C111.905,45.217 110.827,43.463 109.357,41.992C109.085,41.721 108.802,41.465 108.511,41.22C107.217,42.056 105.991,43.036 104.858,44.169L101.525,47.501L100.008,49.018L94.952,54.073L92.614,56.411L102.726,56.411L105.064,54.073L106.581,52.557L109.914,49.224C110.726,48.411 111.612,47.715 112.547,47.128Z" style="fill:rgb(40,179,74);fill-rule:nonzero;"/>
            <path d="M131.147,49.224C133.414,51.49 134.798,54.307 135.31,57.248C135.366,57.569 135.412,57.89 135.447,58.213C135.481,58.531 135.507,58.851 135.522,59.17C135.629,61.58 135.159,64.01 134.114,66.236C133.987,66.506 133.85,66.772 133.706,67.035C133.56,67.303 133.405,67.567 133.242,67.827C132.655,68.761 131.96,69.646 131.147,70.458L127.815,73.791L132.871,78.846L136.203,75.513C137.336,74.381 138.316,73.154 139.151,71.859C139.321,71.596 139.488,71.332 139.645,71.064C139.805,70.791 139.958,70.515 140.106,70.237C141.354,67.883 142.146,65.35 142.487,62.768C142.533,62.423 142.57,62.076 142.6,61.73C142.63,61.381 142.651,61.031 142.665,60.681C142.888,54.729 140.737,48.703 136.203,44.169C131.882,39.848 126.207,37.687 120.53,37.687C120.251,37.687 119.97,37.696 119.69,37.707C121.255,39.954 122.413,42.436 123.124,45.061C126.064,45.573 128.881,46.958 131.147,49.224Z" style="fill:rgb(40,179,74);fill-rule:nonzero;"/>
            <path d="M141.315,71.746C143.033,74.187 144.046,77.158 144.046,80.363C144.046,83.568 143.033,86.539 141.315,88.98C141.128,89.246 140.933,89.506 140.729,89.759C140.529,90.009 140.322,90.253 140.106,90.489C139.955,90.654 139.8,90.817 139.643,90.975C138.095,92.522 136.213,93.733 134.114,94.49C133.834,94.591 133.548,94.682 133.26,94.767C132.967,94.853 132.672,94.929 132.372,94.998C131.297,95.243 130.179,95.377 129.031,95.377L123.974,95.418L123.962,96.918L129.031,96.877C130.257,96.877 131.494,96.737 132.706,96.46C133.036,96.385 133.361,96.3 133.683,96.206C134.001,96.113 134.315,96.012 134.624,95.901C136.89,95.082 138.993,93.746 140.704,92.035C140.877,91.862 141.047,91.683 141.213,91.502C141.45,91.242 141.677,90.974 141.898,90.699C142.122,90.422 142.337,90.135 142.542,89.843C144.506,87.05 145.546,83.772 145.546,80.363C145.546,77.27 144.691,74.286 143.066,71.674L142.068,70.251L141.315,71.746Z" style="fill:rgb(145,200,62);fill-rule:nonzero;"/>
            <path d="M94.86,81.388C94.877,81.476 94.902,81.563 94.924,81.65C94.944,81.729 94.961,81.809 94.985,81.887C94.995,81.923 95.009,81.957 95.022,81.993C95.039,82.042 95.056,82.091 95.073,82.14C95.088,82.18 95.103,82.22 95.117,82.26C95.131,82.298 95.143,82.335 95.158,82.372C95.178,82.42 95.201,82.467 95.224,82.514C95.237,82.543 95.25,82.571 95.264,82.599L95.264,82.6C95.284,82.643 95.306,82.686 95.326,82.729C95.343,82.765 95.36,82.802 95.378,82.837C95.408,82.894 95.443,82.948 95.476,83.003C95.486,83.018 95.494,83.033 95.503,83.049C95.549,83.126 95.593,83.204 95.643,83.278C95.67,83.319 95.701,83.359 95.731,83.398C95.757,83.434 95.783,83.47 95.81,83.505C95.81,83.506 95.81,83.506 95.811,83.507C95.835,83.539 95.86,83.571 95.883,83.604C95.904,83.633 95.925,83.662 95.947,83.69C96.166,83.956 96.41,84.2 96.677,84.419C96.678,84.42 96.679,84.422 96.681,84.423C96.729,84.463 96.78,84.498 96.83,84.535C96.843,84.544 96.855,84.553 96.866,84.562C96.942,84.618 97.015,84.676 97.093,84.729C97.168,84.779 97.247,84.823 97.325,84.869C97.395,84.911 97.462,84.955 97.533,84.992C97.611,85.034 97.693,85.07 97.774,85.108C97.811,85.126 97.849,85.143 97.887,85.161C97.924,85.178 97.961,85.197 97.999,85.213C98.073,85.244 98.152,85.269 98.228,85.297C98.231,85.298 98.233,85.299 98.236,85.3C98.318,85.329 98.4,85.361 98.484,85.386C98.563,85.41 98.643,85.428 98.723,85.448C98.806,85.469 98.889,85.492 98.973,85.509C98.976,85.509 98.979,85.51 98.982,85.511C99.074,85.529 99.169,85.541 99.264,85.554C99.287,85.557 99.31,85.56 99.333,85.564C99.385,85.572 99.437,85.582 99.49,85.587C99.529,85.591 99.57,85.59 99.611,85.593C99.742,85.603 99.874,85.613 100.008,85.613C100.154,85.613 100.297,85.603 100.44,85.591C100.468,85.589 100.498,85.59 100.527,85.587C100.604,85.579 100.679,85.565 100.755,85.554C100.849,85.54 100.943,85.529 101.035,85.511C101.123,85.494 101.208,85.469 101.294,85.448C101.374,85.428 101.455,85.41 101.533,85.386C101.617,85.361 101.699,85.329 101.782,85.3C101.861,85.271 101.94,85.245 102.018,85.213C102.044,85.202 102.068,85.19 102.093,85.178C102.144,85.154 102.195,85.131 102.245,85.108C102.251,85.105 102.256,85.102 102.262,85.099C102.296,85.083 102.329,85.068 102.362,85.051C102.402,85.031 102.444,85.014 102.483,84.993C102.485,84.991 102.487,84.99 102.489,84.989C102.558,84.952 102.627,84.908 102.695,84.867C102.772,84.821 102.849,84.778 102.923,84.729C102.98,84.691 103.034,84.649 103.089,84.608C103.109,84.592 103.13,84.576 103.152,84.561C103.155,84.558 103.158,84.556 103.162,84.554C103.22,84.51 103.28,84.469 103.336,84.423C103.468,84.314 103.597,84.199 103.721,84.075C103.843,83.953 103.959,83.824 104.069,83.69C104.117,83.632 104.16,83.569 104.205,83.508C104.237,83.465 104.268,83.421 104.3,83.378C104.326,83.344 104.351,83.312 104.375,83.278C104.405,83.232 104.433,83.183 104.462,83.135C104.477,83.107 104.495,83.08 104.511,83.053C104.554,82.981 104.599,82.911 104.638,82.837C104.66,82.797 104.678,82.756 104.698,82.715C104.715,82.677 104.734,82.639 104.752,82.601C104.788,82.525 104.827,82.449 104.859,82.371C104.89,82.296 104.916,82.217 104.944,82.14C104.96,82.096 104.974,82.052 104.99,82.008C105.005,81.967 105.02,81.927 105.032,81.886C105.055,81.809 105.073,81.73 105.092,81.652C105.115,81.564 105.139,81.477 105.157,81.388C105.174,81.298 105.186,81.205 105.199,81.113C105.21,81.036 105.225,80.959 105.232,80.881C105.249,80.711 105.258,80.538 105.258,80.363C105.258,80.188 105.25,80.015 105.232,79.845C105.225,79.767 105.21,79.69 105.199,79.613C105.186,79.521 105.174,79.428 105.157,79.337C105.139,79.249 105.115,79.163 105.093,79.075C105.073,78.996 105.055,78.917 105.032,78.839C105.017,78.791 105,78.743 104.982,78.696C104.968,78.659 104.957,78.622 104.944,78.586C104.916,78.508 104.89,78.43 104.859,78.354C104.827,78.277 104.789,78.202 104.753,78.126C104.731,78.081 104.71,78.036 104.688,77.991C104.672,77.957 104.657,77.922 104.638,77.889L104.638,77.888C104.619,77.852 104.597,77.818 104.576,77.782C104.554,77.747 104.534,77.711 104.512,77.675C104.467,77.599 104.423,77.522 104.375,77.448C104.366,77.435 104.356,77.424 104.347,77.411C104.301,77.346 104.254,77.282 104.206,77.218C104.19,77.197 104.174,77.177 104.159,77.156C104.13,77.115 104.101,77.074 104.069,77.035C103.999,76.95 103.922,76.871 103.846,76.79C103.738,76.674 103.625,76.563 103.506,76.457C103.45,76.406 103.395,76.351 103.336,76.302C103.318,76.287 103.297,76.274 103.279,76.26C103.237,76.228 103.194,76.197 103.152,76.165C103.115,76.137 103.076,76.11 103.039,76.081C103.001,76.053 102.963,76.023 102.923,75.997C102.849,75.947 102.769,75.903 102.692,75.856C102.623,75.815 102.554,75.771 102.484,75.733C102.405,75.691 102.323,75.654 102.241,75.616C102.167,75.582 102.093,75.544 102.018,75.513C101.94,75.481 101.859,75.454 101.779,75.425C101.698,75.396 101.617,75.364 101.533,75.339C101.478,75.323 101.422,75.31 101.367,75.297C101.342,75.291 101.318,75.284 101.294,75.278C101.294,75.278 101.293,75.278 101.292,75.277C101.206,75.256 101.122,75.232 101.035,75.215C101.027,75.213 101.018,75.212 101.01,75.211C100.924,75.195 100.836,75.183 100.749,75.171C100.725,75.168 100.703,75.165 100.68,75.161C100.63,75.153 100.579,75.144 100.527,75.139C100.511,75.137 100.495,75.138 100.479,75.136C100.324,75.123 100.168,75.113 100.008,75.113C99.849,75.113 99.693,75.123 99.537,75.136C99.522,75.138 99.506,75.137 99.489,75.139C99.434,75.145 99.38,75.154 99.326,75.163C99.306,75.166 99.286,75.168 99.266,75.171C99.171,75.185 99.075,75.196 98.983,75.215C98.895,75.232 98.81,75.256 98.724,75.278C98.644,75.298 98.563,75.316 98.484,75.339C98.401,75.364 98.319,75.396 98.236,75.425C98.236,75.426 98.235,75.426 98.235,75.426C98.193,75.442 98.152,75.457 98.11,75.472C98.072,75.486 98.035,75.498 97.999,75.513C97.922,75.545 97.848,75.582 97.773,75.618C97.693,75.655 97.611,75.691 97.533,75.733C97.494,75.754 97.457,75.778 97.419,75.8C97.386,75.821 97.353,75.84 97.319,75.859C97.244,75.904 97.167,75.948 97.094,75.997C97.064,76.017 97.036,76.039 97.007,76.06C96.959,76.095 96.912,76.13 96.864,76.165C96.804,76.211 96.74,76.254 96.681,76.302C96.678,76.305 96.675,76.308 96.673,76.31C96.408,76.528 96.165,76.771 95.947,77.035C95.9,77.094 95.858,77.157 95.812,77.217C95.776,77.266 95.739,77.315 95.704,77.364C95.684,77.392 95.661,77.419 95.642,77.448C95.593,77.521 95.551,77.598 95.505,77.673C95.462,77.745 95.417,77.816 95.378,77.889C95.343,77.953 95.314,78.021 95.282,78.088C95.277,78.1 95.271,78.111 95.266,78.123C95.254,78.147 95.242,78.173 95.231,78.196C95.206,78.249 95.18,78.301 95.157,78.354C95.147,78.381 95.138,78.408 95.128,78.435C95.127,78.439 95.125,78.442 95.124,78.446C95.108,78.492 95.09,78.539 95.073,78.586C95.05,78.65 95.028,78.714 95.006,78.779C94.999,78.799 94.99,78.819 94.985,78.84C94.961,78.916 94.944,78.995 94.924,79.072C94.903,79.161 94.877,79.249 94.86,79.338C94.842,79.427 94.831,79.519 94.819,79.611C94.807,79.689 94.792,79.766 94.784,79.845C94.768,80.015 94.758,80.187 94.758,80.362L94.758,80.363C94.758,80.538 94.768,80.71 94.784,80.881C94.792,80.958 94.807,81.035 94.818,81.112C94.831,81.204 94.842,81.298 94.86,81.388Z" style="fill:rgb(40,179,74);fill-rule:nonzero;"/>
            <path d="M78.312,46.865C77.93,48.499 77.844,49.806 77.844,51.341L77.844,93.59L79.344,93.59L79.344,51.341C79.348,49.518 79.555,47.966 79.721,46.817C79.251,46.81 78.78,46.822 78.312,46.865Z" style="fill:rgb(145,200,62);fill-rule:nonzero;"/>
            <path d="M80.743,51.341L80.743,93.59L82.243,93.59L82.243,51.341C82.243,50.304 82.464,48.372 82.688,47.211C82.179,47.084 81.666,46.986 81.148,46.922C80.998,48.126 80.836,48.885 80.743,51.341Z" style="fill:rgb(145,200,62);fill-rule:nonzero;"/>
            <path d="M83.829,47.553C83.694,48.64 83.508,50.339 83.493,51.341L83.493,93.59L84.993,93.59L84.993,51.341C85.008,50.538 85.121,49.205 85.341,48.186C84.849,47.94 84.344,47.733 83.829,47.553Z" style="fill:rgb(145,200,62);fill-rule:nonzero;"/>
            <path d="M121.713,114.218C122.094,112.584 122.18,111.277 122.18,109.742L122.18,67.136L120.68,67.136L120.68,109.742C120.676,111.564 120.468,113.117 120.302,114.266C120.773,114.273 121.243,114.261 121.713,114.218Z" style="fill:rgb(145,200,62);fill-rule:nonzero;"/>
            <path d="M119.28,109.742L119.28,67.136L117.78,67.136L117.78,109.742C117.78,110.779 117.559,112.711 117.336,113.872C117.844,113.999 118.358,114.097 118.876,114.161C119.026,112.957 119.188,112.197 119.28,109.742Z" style="fill:rgb(145,200,62);fill-rule:nonzero;"/>
            <path d="M116.194,113.53C116.33,112.443 116.516,110.744 116.53,109.742L116.53,67.136L115.03,67.136L115.03,109.742C115.016,110.545 114.902,111.878 114.682,112.897C115.174,113.143 115.68,113.35 116.194,113.53Z" style="fill:rgb(145,200,62);fill-rule:nonzero;"/>
            <path d="M133.688,58.842C132.055,58.46 130.748,58.374 129.214,58.374L86.781,58.374L86.781,59.874L129.214,59.874C131.035,59.878 132.589,60.085 133.737,60.251C133.744,59.781 133.732,59.311 133.688,58.842Z" style="fill:rgb(145,200,62);fill-rule:nonzero;"/>
            <path d="M129.214,61.274L86.781,61.274L86.781,62.774L129.214,62.774C130.25,62.774 132.181,62.994 133.342,63.218C133.469,62.709 133.568,62.196 133.632,61.678C132.427,61.528 131.669,61.366 129.214,61.274Z" style="fill:rgb(145,200,62);fill-rule:nonzero;"/>
            <path d="M133.001,64.36C131.914,64.224 130.215,64.038 129.214,64.024L86.781,64.024L86.781,65.524L129.214,65.524C130.016,65.538 131.349,65.652 132.368,65.871C132.614,65.379 132.821,64.873 133.001,64.36Z" style="fill:rgb(145,200,62);fill-rule:nonzero;"/>
            <path d="M66.335,102.241C67.969,102.623 69.277,102.709 70.811,102.709L113.236,102.709L113.236,101.209L70.811,101.209C68.988,101.205 67.436,100.997 66.287,100.832C66.279,101.302 66.292,101.772 66.335,102.241Z" style="fill:rgb(145,200,62);fill-rule:nonzero;"/>
            <path d="M70.811,99.81L113.236,99.81L113.236,98.31L70.811,98.31C69.775,98.31 67.842,98.089 66.681,97.865C66.554,98.374 66.456,98.887 66.392,99.405C67.596,99.555 68.356,99.717 70.811,99.81Z" style="fill:rgb(145,200,62);fill-rule:nonzero;"/>
            <path d="M67.023,96.724C68.111,96.86 69.809,97.046 70.811,97.06L113.236,97.06L113.236,95.56L70.811,95.56C70.008,95.546 68.675,95.432 67.656,95.212C67.41,95.704 67.202,96.21 67.023,96.724Z" style="fill:rgb(145,200,62);fill-rule:nonzero;"/>
            <path d="M143.71,65.901L144.905,67.158C147.974,70.851 149.695,75.536 149.695,80.363C149.695,85.873 147.543,91.06 143.634,94.967C143.451,95.152 143.259,95.33 143.067,95.508C142.828,95.731 142.584,95.946 142.334,96.157C142.086,96.367 141.833,96.57 141.575,96.767C139.61,98.274 137.425,99.402 135.082,100.121C134.801,100.207 134.518,100.288 134.233,100.363C133.953,100.435 133.669,100.5 133.384,100.561C131.949,100.87 130.485,101.027 129.031,101.027L123.962,101.067L123.962,102.567L129.031,102.527C130.632,102.527 132.194,102.352 133.7,102.028C134.005,101.962 134.31,101.892 134.611,101.814C134.918,101.734 135.22,101.647 135.522,101.555C138.069,100.773 140.42,99.543 142.487,97.958C142.763,97.746 143.035,97.528 143.3,97.304C143.569,97.078 143.831,96.846 144.088,96.608C144.293,96.417 144.498,96.226 144.696,96.028C148.71,92.014 151.195,86.473 151.195,80.363C151.195,73.95 148.455,68.169 144.088,64.118L143.71,65.901Z" style="fill:rgb(145,200,62);fill-rule:nonzero;"/>
            <path d="M142.495,68.747C148.943,76.156 148.096,87.339 140.69,93.789C137.731,96.364 134.104,97.864 130.25,98.125L123.963,98.165L123.963,99.665L130.298,99.623C134.533,99.339 138.466,97.712 141.674,94.92C149.705,87.928 150.549,75.704 143.558,67.672L143.133,67.307L142.495,68.747Z" style="fill:rgb(145,200,62);fill-rule:nonzero;"/>
            <path d="M58.685,88.899C56.967,86.458 55.954,83.487 55.954,80.282C55.954,77.077 56.967,74.106 58.685,71.665C58.871,71.399 59.067,71.138 59.271,70.885C59.471,70.636 59.678,70.392 59.894,70.155C60.045,69.99 60.198,69.828 60.357,69.67C61.904,68.123 63.787,66.912 65.886,66.155C66.166,66.054 66.451,65.963 66.739,65.878C67.031,65.792 67.328,65.715 67.627,65.647C68.703,65.402 69.82,65.267 70.969,65.267L76.042,65.267L76.055,63.767L70.969,63.767C69.742,63.767 68.506,63.908 67.294,64.184C66.964,64.259 66.638,64.344 66.316,64.439C65.999,64.532 65.685,64.633 65.376,64.744C63.109,65.563 61.007,66.899 59.296,68.609C59.122,68.783 58.953,68.961 58.787,69.143C58.55,69.403 58.322,69.671 58.102,69.945C57.878,70.223 57.663,70.509 57.457,70.801C55.493,73.594 54.454,76.873 54.454,80.282C54.454,83.374 55.309,86.359 56.934,88.971L57.932,90.394L58.685,88.899Z" style="fill:rgb(145,200,62);fill-rule:nonzero;"/>
            <path d="M56.29,94.744L55.094,93.487C52.026,89.794 50.305,85.109 50.305,80.282C50.305,74.772 52.456,69.585 56.364,65.677C56.549,65.493 56.74,65.315 56.933,65.136C57.172,64.914 57.416,64.698 57.666,64.488C57.914,64.278 58.167,64.075 58.425,63.877C60.39,62.371 62.574,61.243 64.917,60.524C65.198,60.438 65.482,60.356 65.767,60.282C66.047,60.209 66.331,60.145 66.615,60.083C68.05,59.774 69.515,59.618 70.969,59.618L76.055,59.618L76.055,58.118L70.969,58.118C69.367,58.118 67.806,58.293 66.3,58.617C65.994,58.683 65.69,58.752 65.389,58.83C65.082,58.91 64.778,58.997 64.478,59.09C61.931,59.871 59.579,61.102 57.513,62.687C57.236,62.899 56.965,63.116 56.698,63.341C56.431,63.567 56.168,63.799 55.912,64.037C55.706,64.227 55.502,64.419 55.304,64.617C51.29,68.63 48.805,74.172 48.805,80.282C48.805,86.695 51.544,92.476 55.912,96.527L56.29,94.744Z" style="fill:rgb(145,200,62);fill-rule:nonzero;"/>
            <path d="M57.505,91.898C51.057,84.488 51.903,73.305 59.31,66.856C62.269,64.28 65.896,62.78 69.75,62.52L76.055,62.52L76.055,61.02L69.7,61.021C65.467,61.305 61.533,62.933 58.325,65.725C50.295,72.717 49.45,84.941 56.442,92.972L56.866,93.337L57.505,91.898Z" style="fill:rgb(145,200,62);fill-rule:nonzero;"/>
            <path d="M91.423,39.008C93.863,37.29 96.835,36.277 100.041,36.277C103.246,36.277 106.216,37.29 108.658,39.008C108.923,39.195 109.184,39.389 109.437,39.593C109.686,39.794 109.931,40.001 110.167,40.217C110.332,40.368 110.494,40.522 110.652,40.68C112.2,42.227 113.41,44.11 114.168,46.208C114.269,46.489 114.36,46.774 114.444,47.062C114.531,47.355 114.607,47.651 114.675,47.95C114.921,49.026 115.055,50.143 115.055,51.292L115.055,56.398L116.555,56.411L116.555,51.292C116.555,50.065 116.415,48.829 116.138,47.617C116.063,47.287 115.978,46.961 115.883,46.639C115.79,46.322 115.69,46.008 115.579,45.699C114.76,43.432 113.423,41.329 111.714,39.619C111.54,39.446 111.361,39.277 111.179,39.11C110.92,38.873 110.652,38.645 110.378,38.425C110.099,38.2 109.813,37.986 109.521,37.78C106.728,35.816 103.45,34.777 100.041,34.777C96.947,34.777 93.963,35.632 91.351,37.257L89.928,38.254L91.423,39.008Z" style="fill:rgb(145,200,62);fill-rule:nonzero;"/>
            <path d="M85.578,36.613L86.835,35.417C90.528,32.348 95.213,30.627 100.041,30.627C105.55,30.627 110.737,32.779 114.645,36.688C114.83,36.872 115.007,37.063 115.186,37.256C115.408,37.495 115.625,37.739 115.835,37.989C116.045,38.237 116.248,38.49 116.445,38.748C117.951,40.713 119.08,42.897 119.798,45.24C119.885,45.521 119.966,45.804 120.041,46.089C120.114,46.37 120.177,46.654 120.239,46.939C120.548,48.373 120.705,49.838 120.705,51.292L120.705,56.411L122.205,56.411L122.205,51.292C122.205,49.69 122.03,48.129 121.706,46.623C121.639,46.317 121.571,46.012 121.492,45.712C121.413,45.405 121.325,45.102 121.233,44.8C120.451,42.254 119.22,39.903 117.635,37.835C117.423,37.559 117.206,37.288 116.981,37.022C116.755,36.754 116.524,36.491 116.286,36.235C116.095,36.029 115.904,35.824 115.706,35.627C111.692,31.613 106.151,29.127 100.041,29.127C93.628,29.127 87.846,31.867 83.795,36.235L85.578,36.613Z" style="fill:rgb(145,200,62);fill-rule:nonzero;"/>
            <path d="M88.425,37.828C95.834,31.38 107.017,32.227 113.466,39.633C116.042,42.592 117.542,46.219 117.802,50.073L117.802,56.411L119.302,56.411L119.301,50.023C119.017,45.79 117.389,41.857 114.597,38.649C107.606,30.618 95.381,29.773 87.35,36.765L86.985,37.19L88.425,37.828Z" style="fill:rgb(145,200,62);fill-rule:nonzero;"/>
            <path d="M108.577,121.637C106.135,123.355 103.165,124.367 99.959,124.367C96.754,124.367 93.783,123.355 91.342,121.637C91.075,121.45 90.816,121.255 90.563,121.052C90.314,120.85 90.069,120.644 89.833,120.427C89.668,120.277 89.505,120.123 89.347,119.965C87.8,118.417 86.589,116.534 85.832,114.436C85.731,114.156 85.64,113.87 85.555,113.582C85.469,113.29 85.393,112.993 85.324,112.694C85.078,111.619 84.944,110.501 84.944,109.353L84.944,104.302L83.444,104.29L83.444,109.353C83.444,110.579 83.585,111.816 83.861,113.028C83.937,113.357 84.022,113.683 84.116,114.006C84.209,114.323 84.31,114.636 84.421,114.946C85.239,117.213 86.576,119.315 88.286,121.025C88.46,121.199 88.639,121.368 88.82,121.534C89.08,121.772 89.348,121.999 89.622,122.22C89.901,122.444 90.187,122.658 90.479,122.864C93.272,124.829 96.55,125.867 99.959,125.867C103.052,125.867 106.037,125.013 108.649,123.388L110.072,122.39L108.577,121.637Z" style="fill:rgb(145,200,62);fill-rule:nonzero;"/>
            <path d="M114.422,124.031L113.165,125.227C109.471,128.297 104.786,130.017 99.959,130.017C94.449,130.017 89.263,127.865 85.355,123.957C85.17,123.772 84.991,123.581 84.814,123.389C84.591,123.15 84.375,122.905 84.164,122.656C83.955,122.407 83.752,122.154 83.555,121.896C82.048,119.932 80.92,117.748 80.2,115.404C80.114,115.123 80.033,114.841 79.959,114.555C79.886,114.275 79.821,113.991 79.761,113.706C79.451,112.271 79.295,110.806 79.295,109.353L79.295,104.29L77.795,104.29L77.795,109.353C77.795,110.954 77.97,112.515 78.294,114.022C78.36,114.327 78.429,114.632 78.507,114.933C78.587,115.239 78.674,115.543 78.767,115.844C79.549,118.391 80.779,120.742 82.364,122.809C82.576,123.086 82.794,123.357 83.018,123.623C83.244,123.89 83.476,124.153 83.714,124.409C83.904,124.615 84.096,124.82 84.294,125.018C88.308,129.032 93.849,131.517 99.959,131.517C106.372,131.517 112.154,128.777 116.205,124.409L114.422,124.031Z" style="fill:rgb(145,200,62);fill-rule:nonzero;"/>
            <path d="M111.575,122.817C104.166,129.265 92.983,128.418 86.533,121.011C83.958,118.052 82.458,114.426 82.197,110.572L82.197,104.29L80.697,104.29L80.698,110.621C80.983,114.855 82.611,118.788 85.403,121.996C92.394,130.026 104.619,130.871 112.65,123.88L113.015,123.455L111.575,122.817Z" style="fill:rgb(145,200,62);fill-rule:nonzero;"/>
        </g>
    </g>
</svg>
