<?xml version="1.0" encoding="UTF-8" standalone="no"?>
<!DOCTYPE svg PUBLIC "-//W3C//DTD SVG 1.1//EN" "http://www.w3.org/Graphics/SVG/1.1/DTD/svg11.dtd">
<svg width="100%" height="100%" viewBox="0 0 427 427" version="1.1" xmlns="http://www.w3.org/2000/svg" xmlns:xlink="http://www.w3.org/1999/xlink" xml:space="preserve" xmlns:serif="http://www.serif.com/" style="fill-rule:evenodd;clip-rule:evenodd;stroke-linejoin:round;stroke-miterlimit:2;">
    <g transform="matrix(1,0,0,1,-203.354,-120.021)">
        <g transform="matrix(4.16667,0,0,4.16667,0,0)">
            <path d="M113.236,93.268L113.236,88.048L108.015,93.268L113.236,93.268Z" style="fill:white;fill-rule:nonzero;"/>
            <path d="M68.869,111.179C66.604,108.913 65.218,106.096 64.706,103.156C64.651,102.835 64.605,102.513 64.57,102.19C64.535,101.871 64.509,101.552 64.494,101.233C64.388,98.823 64.858,96.393 65.903,94.168C66.03,93.898 66.167,93.632 66.311,93.368C66.456,93.101 66.612,92.837 66.776,92.577C67.362,91.643 68.057,90.758 68.869,89.946L72.202,86.613L67.147,81.558L63.814,84.89C62.681,86.023 61.701,87.25 60.866,88.545C60.696,88.807 60.53,89.071 60.372,89.34C60.212,89.613 60.059,89.889 59.911,90.167C58.663,92.521 57.871,95.054 57.53,97.636C57.484,97.981 57.447,98.327 57.417,98.674C57.387,99.023 57.366,99.372 57.353,99.722C57.129,105.675 59.28,111.7 63.814,116.235C68.135,120.555 73.811,122.716 79.487,122.716C79.767,122.716 80.046,122.707 80.326,122.696C78.761,120.449 77.604,117.968 76.893,115.342C73.952,114.83 71.136,113.446 68.869,111.179Z" style="fill:white;fill-rule:nonzero;"/>
            <path d="M90.103,111.179C89.291,111.991 88.407,112.687 87.472,113.273C88.255,115.598 89.666,117.636 91.504,119.183C92.799,118.347 94.027,117.367 95.158,116.235L98.491,112.902L107.402,103.992L97.29,103.992L94.952,106.33L93.436,107.846L92.088,109.195L90.103,111.179Z" style="fill:white;fill-rule:nonzero;"/>
            <path d="M135.31,103.156C134.799,106.096 133.414,108.913 131.147,111.179C128.882,113.446 126.064,114.83 123.124,115.342C122.803,115.398 122.481,115.444 122.158,115.479C121.84,115.513 121.521,115.54 121.201,115.554C120.977,115.564 120.754,115.57 120.53,115.57C118.343,115.57 116.155,115.094 114.135,114.146C113.866,114.019 113.599,113.882 113.336,113.738C113.069,113.593 112.806,113.438 112.548,113.275C111.612,112.688 110.726,111.992 109.914,111.179L106.581,107.846L101.525,112.902L104.858,116.235C105.991,117.367 107.218,118.347 108.511,119.183C108.775,119.353 109.039,119.519 109.307,119.677C109.581,119.837 109.857,119.99 110.135,120.137C112.489,121.386 115.022,122.178 117.604,122.519C117.949,122.565 118.295,122.602 118.641,122.632C118.991,122.661 119.341,122.683 119.69,122.696C119.97,122.707 120.251,122.716 120.53,122.716C126.207,122.716 131.883,120.555 136.203,116.235C140.737,111.7 142.888,105.675 142.665,99.722C140.417,101.288 137.935,102.445 135.31,103.156Z" style="fill:white;fill-rule:nonzero;"/>
            <path d="M113.236,66.814L108.015,66.814L113.236,72.034L113.236,66.814Z" style="fill:white;fill-rule:nonzero;"/>
            <path d="M131.147,89.946C131.961,90.759 132.656,91.645 133.244,92.58C135.155,91.937 136.909,90.859 138.379,89.389C138.651,89.117 138.906,88.834 139.151,88.544C138.315,87.25 137.336,86.023 136.203,84.89L132.871,81.558L123.961,72.648L123.961,82.759L127.815,86.613L131.147,89.946Z" style="fill:white;fill-rule:nonzero;"/>
            <path d="M64.706,56.926C65.218,53.986 66.604,51.169 68.869,48.902C71.136,46.636 73.952,45.251 76.893,44.739C77.214,44.684 77.535,44.637 77.859,44.603C78.177,44.568 78.496,44.542 78.816,44.528C79.039,44.518 79.263,44.511 79.487,44.511C81.674,44.511 83.863,44.987 85.881,45.935C86.152,46.062 86.417,46.199 86.681,46.343C86.948,46.489 87.21,46.643 87.47,46.806C88.405,47.393 89.29,48.089 90.103,48.902L93.436,52.235L98.491,47.179L95.158,43.846C94.027,42.714 92.799,41.734 91.505,40.898C91.242,40.729 90.978,40.562 90.709,40.405C90.437,40.244 90.16,40.092 89.882,39.944C87.528,38.696 84.995,37.904 82.413,37.562C82.068,37.517 81.722,37.479 81.375,37.449C81.026,37.42 80.677,37.398 80.326,37.385C80.046,37.375 79.767,37.365 79.487,37.365C73.811,37.365 68.135,39.526 63.814,43.846C59.28,48.381 57.129,54.407 57.353,60.359C59.6,58.794 62.081,57.637 64.706,56.926Z" style="fill:white;fill-rule:nonzero;"/>
            <path d="M68.869,70.136C68.057,69.323 67.361,68.437 66.774,67.502C64.863,68.144 63.108,69.223 61.638,70.693C61.366,70.965 61.111,71.247 60.866,71.538C61.701,72.832 62.682,74.059 63.814,75.192L65.667,77.045L72.479,83.857L73.719,85.096L76.057,87.434L76.057,77.323L70.723,71.99L68.869,70.136Z" style="fill:white;fill-rule:nonzero;"/>
            <path d="M86.782,93.268L92.001,93.268L86.782,88.048L86.782,93.268Z" style="fill:white;fill-rule:nonzero;"/>
            <path d="M86.782,66.814L86.782,72.034L92.001,66.814L86.782,66.814Z" style="fill:white;fill-rule:nonzero;"/>
            <path d="M112.548,46.806C111.905,44.895 110.827,43.141 109.357,41.671C109.085,41.399 108.802,41.143 108.511,40.898C107.218,41.734 105.991,42.714 104.858,43.846L101.525,47.179L100.009,48.696L94.952,53.752L92.615,56.089L102.726,56.089L105.064,53.752L106.581,52.235L109.914,48.902C110.726,48.089 111.612,47.393 112.548,46.806Z" style="fill:white;fill-rule:nonzero;"/>
            <path d="M76.057,74.289L76.057,72.648" style="fill:none;fill-rule:nonzero;"/>
            <path d="M131.147,48.902C133.414,51.169 134.799,53.986 135.31,56.926C135.366,57.247 135.412,57.569 135.447,57.891C135.481,58.21 135.508,58.529 135.522,58.848C135.629,61.258 135.159,63.689 134.114,65.914C133.987,66.184 133.85,66.45 133.706,66.714C133.56,66.981 133.405,67.245 133.242,67.505C132.655,68.439 131.96,69.323 131.147,70.136L127.815,73.468L132.871,78.524L136.203,75.192C137.336,74.059 138.316,72.831 139.151,71.537C139.321,71.274 139.488,71.01 139.645,70.742C139.805,70.469 139.958,70.193 140.106,69.914C141.354,67.561 142.146,65.028 142.487,62.446C142.533,62.1 142.57,61.755 142.6,61.408C142.63,61.059 142.651,60.709 142.665,60.359C142.888,54.407 140.737,48.381 136.203,43.846C131.883,39.526 126.207,37.365 120.53,37.365C120.251,37.365 119.97,37.375 119.69,37.385C121.256,39.633 122.413,42.114 123.124,44.739C126.064,45.251 128.882,46.636 131.147,48.902Z" style="fill:white;fill-rule:nonzero;"/>
            <path d="M141.315,71.424C143.033,73.865 144.046,76.836 144.046,80.041C144.046,83.246 143.033,86.217 141.315,88.658C141.128,88.924 140.933,89.184 140.729,89.437C140.529,89.687 140.322,89.931 140.106,90.167C139.955,90.332 139.801,90.495 139.643,90.653C138.095,92.2 136.213,93.41 134.114,94.168C133.834,94.269 133.549,94.36 133.26,94.445C132.968,94.531 132.672,94.608 132.372,94.676C131.297,94.922 130.179,95.055 129.031,95.055L123.974,95.095L123.962,96.595L129.031,96.555C130.257,96.555 131.494,96.415 132.706,96.138C133.036,96.063 133.361,95.979 133.683,95.884C134.001,95.791 134.315,95.69 134.624,95.579C136.89,94.76 138.993,93.424 140.704,91.714C140.877,91.54 141.047,91.362 141.213,91.179C141.45,90.92 141.677,90.652 141.898,90.378C142.122,90.099 142.337,89.814 142.542,89.521C144.507,86.729 145.546,83.45 145.546,80.041C145.546,76.948 144.691,73.964 143.066,71.352L142.068,69.929L141.315,71.424Z" style="fill:white;fill-rule:nonzero;"/>
            <path d="M94.86,81.067C94.877,81.154 94.902,81.24 94.924,81.328C94.944,81.407 94.961,81.487 94.985,81.565C94.995,81.6 95.009,81.635 95.022,81.671C95.039,81.72 95.056,81.769 95.074,81.818C95.088,81.858 95.103,81.898 95.117,81.938C95.131,81.975 95.143,82.013 95.158,82.05C95.178,82.098 95.201,82.145 95.224,82.193C95.238,82.22 95.25,82.249 95.264,82.277L95.264,82.279C95.284,82.321 95.306,82.364 95.326,82.407C95.343,82.443 95.36,82.48 95.378,82.515C95.408,82.571 95.443,82.626 95.476,82.681C95.486,82.696 95.494,82.712 95.503,82.727C95.549,82.803 95.593,82.882 95.643,82.956C95.67,82.997 95.701,83.036 95.731,83.076C95.757,83.112 95.783,83.148 95.81,83.183C95.81,83.183 95.81,83.184 95.811,83.185C95.835,83.217 95.86,83.249 95.883,83.282C95.905,83.311 95.925,83.341 95.948,83.368C96.166,83.634 96.41,83.879 96.677,84.097C96.678,84.098 96.679,84.1 96.681,84.101C96.729,84.141 96.781,84.176 96.83,84.213C96.843,84.222 96.855,84.231 96.866,84.24C96.942,84.297 97.015,84.354 97.093,84.406C97.168,84.457 97.247,84.501 97.325,84.548C97.395,84.589 97.462,84.633 97.533,84.671C97.612,84.712 97.693,84.748 97.774,84.786C97.811,84.804 97.849,84.821 97.887,84.839C97.924,84.857 97.961,84.875 97.999,84.891C98.074,84.922 98.152,84.947 98.228,84.975C98.231,84.976 98.233,84.976 98.236,84.977C98.318,85.007 98.4,85.039 98.484,85.065C98.563,85.088 98.643,85.106 98.723,85.126C98.806,85.147 98.889,85.17 98.973,85.187C98.976,85.188 98.979,85.189 98.982,85.189C99.075,85.207 99.169,85.218 99.264,85.232C99.287,85.236 99.31,85.238 99.333,85.242C99.385,85.25 99.437,85.259 99.491,85.265C99.53,85.269 99.571,85.268 99.611,85.271C99.742,85.281 99.874,85.291 100.009,85.291C100.154,85.291 100.298,85.281 100.44,85.269C100.469,85.267 100.498,85.268 100.527,85.265C100.604,85.257 100.679,85.243 100.756,85.232C100.849,85.218 100.943,85.207 101.035,85.189C101.123,85.172 101.208,85.148 101.294,85.126C101.374,85.106 101.455,85.088 101.533,85.065C101.617,85.039 101.699,85.007 101.782,84.977C101.861,84.949 101.94,84.923 102.018,84.891C102.044,84.881 102.068,84.867 102.094,84.856C102.144,84.833 102.195,84.809 102.245,84.785C102.251,84.783 102.257,84.78 102.262,84.777C102.296,84.761 102.329,84.746 102.362,84.729C102.402,84.709 102.444,84.692 102.483,84.671C102.485,84.67 102.487,84.669 102.489,84.667C102.558,84.63 102.627,84.587 102.695,84.546C102.772,84.5 102.849,84.456 102.924,84.406C102.98,84.369 103.034,84.327 103.089,84.286C103.109,84.27 103.131,84.255 103.152,84.238C103.155,84.236 103.158,84.234 103.162,84.232C103.22,84.188 103.28,84.147 103.336,84.101C103.469,83.992 103.597,83.877 103.721,83.753C103.844,83.631 103.959,83.502 104.069,83.368C104.117,83.31 104.16,83.247 104.205,83.186C104.237,83.143 104.268,83.099 104.301,83.056C104.326,83.023 104.351,82.99 104.375,82.956C104.405,82.909 104.433,82.861 104.462,82.813C104.477,82.785 104.495,82.758 104.511,82.731C104.554,82.659 104.599,82.589 104.638,82.515C104.66,82.475 104.678,82.434 104.698,82.393C104.716,82.355 104.734,82.318 104.752,82.279C104.788,82.203 104.827,82.127 104.859,82.05C104.89,81.974 104.916,81.895 104.944,81.818C104.96,81.774 104.974,81.73 104.99,81.686C105.005,81.646 105.02,81.605 105.032,81.564C105.055,81.488 105.073,81.408 105.093,81.33C105.115,81.242 105.139,81.155 105.157,81.067C105.175,80.976 105.186,80.883 105.199,80.791C105.21,80.714 105.225,80.637 105.232,80.559C105.249,80.388 105.259,80.216 105.259,80.041C105.259,79.866 105.25,79.694 105.232,79.523C105.225,79.445 105.21,79.368 105.199,79.291C105.186,79.199 105.175,79.106 105.157,79.015C105.139,78.927 105.115,78.841 105.094,78.754C105.073,78.675 105.055,78.594 105.032,78.517C105.017,78.468 105,78.422 104.982,78.374C104.969,78.337 104.957,78.3 104.944,78.264C104.916,78.186 104.89,78.108 104.859,78.032C104.827,77.954 104.789,77.88 104.753,77.804C104.731,77.759 104.71,77.714 104.688,77.669C104.672,77.635 104.657,77.6 104.638,77.567C104.619,77.53 104.597,77.495 104.576,77.46C104.554,77.425 104.534,77.389 104.512,77.354C104.468,77.278 104.424,77.199 104.375,77.126C104.366,77.113 104.356,77.102 104.347,77.09C104.302,77.024 104.254,76.96 104.206,76.896C104.19,76.876 104.175,76.855 104.159,76.835C104.13,76.794 104.101,76.753 104.069,76.714C103.999,76.628 103.922,76.549 103.846,76.468C103.738,76.352 103.625,76.241 103.507,76.135C103.45,76.084 103.395,76.029 103.336,75.981C103.318,75.966 103.298,75.952 103.279,75.938C103.237,75.906 103.194,75.875 103.152,75.843C103.115,75.815 103.076,75.788 103.039,75.759C103.001,75.731 102.963,75.701 102.924,75.675C102.849,75.625 102.769,75.581 102.692,75.534C102.623,75.493 102.554,75.449 102.484,75.411C102.405,75.369 102.323,75.333 102.241,75.295C102.167,75.259 102.094,75.222 102.018,75.191C101.94,75.158 101.859,75.132 101.779,75.104C101.698,75.074 101.617,75.043 101.533,75.017C101.478,75.001 101.423,74.988 101.367,74.975C101.343,74.968 101.318,74.962 101.294,74.956C101.294,74.956 101.293,74.956 101.292,74.955C101.206,74.934 101.122,74.91 101.035,74.893C101.027,74.891 101.018,74.89 101.01,74.889C100.925,74.873 100.836,74.862 100.749,74.849C100.725,74.846 100.703,74.842 100.68,74.839C100.63,74.831 100.579,74.822 100.527,74.817C100.511,74.816 100.495,74.816 100.479,74.815C100.324,74.8 100.168,74.791 100.009,74.791C99.849,74.791 99.693,74.801 99.537,74.815C99.522,74.816 99.506,74.816 99.49,74.817C99.434,74.822 99.38,74.832 99.326,74.841C99.306,74.844 99.286,74.846 99.266,74.849C99.171,74.863 99.075,74.874 98.983,74.893C98.895,74.91 98.81,74.934 98.724,74.956C98.644,74.976 98.563,74.993 98.484,75.017C98.401,75.042 98.319,75.074 98.237,75.104C98.236,75.104 98.235,75.104 98.235,75.105C98.193,75.12 98.152,75.135 98.11,75.15C98.073,75.164 98.035,75.176 97.999,75.191C97.922,75.222 97.848,75.26 97.773,75.296C97.693,75.334 97.612,75.369 97.533,75.411C97.494,75.432 97.457,75.456 97.419,75.479C97.386,75.499 97.353,75.518 97.32,75.537C97.244,75.583 97.167,75.626 97.094,75.675C97.064,75.695 97.036,75.717 97.007,75.738C96.959,75.773 96.912,75.808 96.865,75.843C96.804,75.889 96.741,75.932 96.681,75.98L96.681,75.981C96.678,75.983 96.675,75.986 96.673,75.988C96.408,76.206 96.165,76.449 95.948,76.714C95.9,76.772 95.858,76.835 95.812,76.896C95.776,76.944 95.74,76.993 95.704,77.042C95.684,77.07 95.661,77.097 95.642,77.127C95.593,77.199 95.551,77.276 95.505,77.351C95.462,77.423 95.417,77.493 95.378,77.567C95.343,77.632 95.314,77.699 95.283,77.766C95.277,77.778 95.271,77.789 95.266,77.801C95.254,77.825 95.242,77.85 95.231,77.875C95.206,77.927 95.18,77.979 95.158,78.032C95.147,78.059 95.138,78.086 95.128,78.113C95.127,78.116 95.125,78.12 95.124,78.124C95.108,78.17 95.09,78.217 95.074,78.264C95.05,78.328 95.028,78.392 95.006,78.457C94.999,78.477 94.991,78.497 94.985,78.517C94.961,78.594 94.945,78.673 94.924,78.751C94.903,78.839 94.877,78.926 94.86,79.016C94.842,79.105 94.831,79.197 94.819,79.289C94.807,79.367 94.792,79.445 94.784,79.523C94.768,79.693 94.758,79.865 94.758,80.04L94.758,80.041C94.758,80.216 94.768,80.388 94.784,80.559C94.792,80.636 94.807,80.713 94.818,80.79C94.831,80.883 94.842,80.976 94.86,81.067Z" style="fill:white;fill-rule:nonzero;"/>
            <path d="M78.312,46.544C77.93,48.177 77.844,49.485 77.844,51.019L77.844,93.268L79.344,93.268L79.344,51.019C79.348,49.196 79.555,47.643 79.721,46.495C79.251,46.488 78.781,46.5 78.312,46.544Z" style="fill:white;fill-rule:nonzero;"/>
            <path d="M80.743,51.019L80.743,93.268L82.243,93.268L82.243,51.019C82.243,49.982 82.464,48.05 82.688,46.889C82.179,46.762 81.666,46.664 81.148,46.599C80.998,47.804 80.836,48.564 80.743,51.019Z" style="fill:white;fill-rule:nonzero;"/>
            <path d="M83.829,47.231C83.694,48.319 83.508,50.017 83.493,51.019L83.493,93.268L84.993,93.268L84.993,51.019C85.008,50.216 85.121,48.883 85.341,47.864C84.849,47.618 84.344,47.41 83.829,47.231Z" style="fill:white;fill-rule:nonzero;"/>
            <path d="M121.713,113.896C122.094,112.262 122.18,110.955 122.18,109.42L122.18,66.814L120.68,66.814L120.68,109.42C120.677,111.242 120.469,112.796 120.302,113.944C120.773,113.951 121.243,113.939 121.713,113.896Z" style="fill:white;fill-rule:nonzero;"/>
            <path d="M119.28,109.42L119.28,66.814L117.78,66.814L117.78,109.42C117.78,110.457 117.559,112.389 117.336,113.55C117.844,113.677 118.358,113.775 118.876,113.84C119.026,112.635 119.188,111.875 119.28,109.42Z" style="fill:white;fill-rule:nonzero;"/>
            <path d="M116.194,113.208C116.33,112.12 116.516,110.422 116.53,109.42L116.53,66.814L115.03,66.814L115.03,109.42C115.016,110.223 114.902,111.556 114.682,112.575C115.175,112.821 115.68,113.029 116.194,113.208Z" style="fill:white;fill-rule:nonzero;"/>
            <path d="M133.688,58.52C132.055,58.137 130.748,58.052 129.214,58.052L86.782,58.052L86.782,59.552L129.214,59.552C131.035,59.555 132.589,59.763 133.737,59.929C133.744,59.459 133.732,58.988 133.688,58.52Z" style="fill:white;fill-rule:nonzero;"/>
            <path d="M129.214,60.952L86.782,60.952L86.782,62.452L129.214,62.452C130.25,62.452 132.181,62.672 133.343,62.896C133.469,62.387 133.568,61.874 133.633,61.356C132.427,61.206 131.669,61.044 129.214,60.952Z" style="fill:white;fill-rule:nonzero;"/>
            <path d="M133.001,64.038C131.914,63.902 130.216,63.716 129.214,63.702L86.782,63.702L86.782,65.202L129.214,65.202C130.016,65.216 131.349,65.33 132.368,65.549C132.614,65.057 132.821,64.551 133.001,64.038Z" style="fill:white;fill-rule:nonzero;"/>
            <path d="M66.335,101.919C67.969,102.302 69.277,102.387 70.811,102.387L113.236,102.387L113.236,100.887L70.811,100.887C68.989,100.884 67.436,100.676 66.287,100.51C66.28,100.98 66.292,101.45 66.335,101.919Z" style="fill:white;fill-rule:nonzero;"/>
            <path d="M70.811,99.488L113.236,99.488L113.236,97.988L70.811,97.988C69.775,97.988 67.842,97.767 66.681,97.544C66.554,98.052 66.456,98.566 66.392,99.084C67.596,99.233 68.356,99.396 70.811,99.488Z" style="fill:white;fill-rule:nonzero;"/>
            <path d="M67.023,96.402C68.111,96.538 69.809,96.724 70.811,96.738L113.236,96.738L113.236,95.238L70.811,95.238C70.008,95.224 68.675,95.11 67.657,94.89C67.41,95.383 67.202,95.888 67.023,96.402Z" style="fill:white;fill-rule:nonzero;"/>
            <path d="M143.71,65.579L144.905,66.836C147.974,70.529 149.695,75.215 149.695,80.041C149.695,85.551 147.543,90.738 143.635,94.646C143.451,94.83 143.26,95.008 143.067,95.187C142.828,95.409 142.584,95.625 142.334,95.836C142.086,96.045 141.833,96.248 141.575,96.446C139.61,97.951 137.426,99.08 135.082,99.799C134.802,99.885 134.518,99.967 134.233,100.041C133.953,100.114 133.669,100.178 133.385,100.239C131.949,100.548 130.485,100.705 129.031,100.705L123.962,100.745L123.962,102.245L129.031,102.205C130.632,102.205 132.194,102.03 133.7,101.705C134.006,101.64 134.31,101.571 134.611,101.492C134.918,101.412 135.22,101.325 135.522,101.233C138.069,100.451 140.42,99.221 142.487,97.636C142.763,97.424 143.035,97.206 143.301,96.982C143.569,96.756 143.831,96.524 144.088,96.286C144.293,96.095 144.498,95.904 144.696,95.706C148.71,91.693 151.195,86.152 151.195,80.041C151.195,73.629 148.455,67.846 144.088,63.796L143.71,65.579Z" style="fill:white;fill-rule:nonzero;"/>
            <path d="M142.495,68.425C148.943,75.835 148.096,87.017 140.69,93.467C137.731,96.042 134.104,97.542 130.25,97.803L123.963,97.843L123.963,99.343L130.3,99.301C134.533,99.017 138.467,97.39 141.675,94.598C149.705,87.606 150.55,75.382 143.558,67.35L143.134,66.986L142.495,68.425Z" style="fill:white;fill-rule:nonzero;"/>
            <path d="M58.685,88.577C56.967,86.136 55.954,83.165 55.954,79.96C55.954,76.755 56.967,73.784 58.685,71.343C58.871,71.077 59.067,70.817 59.271,70.564C59.471,70.314 59.678,70.07 59.894,69.834C60.045,69.669 60.199,69.506 60.357,69.348C61.905,67.801 63.787,66.591 65.886,65.833C66.166,65.732 66.451,65.641 66.74,65.556C67.032,65.47 67.328,65.393 67.627,65.325C68.703,65.079 69.821,64.946 70.969,64.946L76.042,64.946L76.055,63.446L70.969,63.446C69.742,63.446 68.506,63.586 67.294,63.863C66.964,63.938 66.638,64.022 66.316,64.117C65.999,64.21 65.685,64.311 65.376,64.422C63.109,65.24 61.007,66.577 59.296,68.287C59.122,68.461 58.953,68.639 58.787,68.821C58.55,69.081 58.323,69.349 58.102,69.623C57.878,69.902 57.663,70.187 57.457,70.48C55.493,73.272 54.454,76.55 54.454,79.96C54.454,83.052 55.309,86.037 56.934,88.649L57.932,90.072L58.685,88.577Z" style="fill:white;fill-rule:nonzero;"/>
            <path d="M56.29,94.422L55.094,93.165C52.026,89.472 50.305,84.786 50.305,79.96C50.305,74.45 52.456,69.263 56.365,65.355C56.549,65.171 56.741,64.992 56.933,64.814C57.172,64.592 57.416,64.376 57.666,64.165C57.914,63.956 58.167,63.753 58.425,63.555C60.39,62.05 62.575,60.921 64.917,60.202C65.198,60.115 65.482,60.034 65.767,59.96C66.047,59.887 66.331,59.822 66.616,59.761C68.05,59.452 69.515,59.296 70.969,59.296L76.055,59.296L76.055,57.796L70.969,57.796C69.367,57.796 67.806,57.97 66.3,58.295C65.994,58.361 65.69,58.43 65.389,58.508C65.082,58.588 64.779,58.675 64.478,58.768C61.931,59.55 59.579,60.78 57.513,62.365C57.237,62.577 56.965,62.795 56.699,63.019C56.431,63.245 56.168,63.477 55.912,63.715C55.706,63.905 55.502,64.097 55.304,64.295C51.29,68.308 48.805,73.849 48.805,79.96C48.805,86.372 51.544,92.154 55.912,96.205L56.29,94.422Z" style="fill:white;fill-rule:nonzero;"/>
            <path d="M57.505,91.575C51.057,84.166 51.904,72.984 59.31,66.534C62.269,63.959 65.896,62.459 69.75,62.198L76.055,62.198L76.055,60.698L69.7,60.699C65.467,60.984 61.533,62.611 58.325,65.403C50.295,72.395 49.45,84.619 56.442,92.651L56.866,93.015L57.505,91.575Z" style="fill:white;fill-rule:nonzero;"/>
            <path d="M91.423,38.685C93.864,36.968 96.835,35.955 100.041,35.955C103.246,35.955 106.217,36.968 108.658,38.685C108.924,38.873 109.184,39.068 109.437,39.271C109.686,39.472 109.931,39.679 110.167,39.895C110.332,40.046 110.494,40.199 110.652,40.358C112.2,41.905 113.41,43.788 114.168,45.886C114.269,46.167 114.36,46.452 114.444,46.74C114.531,47.033 114.607,47.329 114.676,47.629C114.921,48.704 115.055,49.821 115.055,50.97L115.055,56.076L116.555,56.089L116.555,50.97C116.555,49.743 116.415,48.507 116.138,47.295C116.063,46.965 115.978,46.639 115.884,46.317C115.79,46 115.69,45.686 115.579,45.377C114.76,43.11 113.424,41.008 111.714,39.297C111.54,39.124 111.361,38.954 111.179,38.788C110.92,38.551 110.652,38.323 110.378,38.102C110.099,37.879 109.813,37.664 109.521,37.459C106.728,35.494 103.45,34.455 100.041,34.455C96.948,34.455 93.963,35.309 91.351,36.935L89.928,37.932L91.423,38.685Z" style="fill:white;fill-rule:nonzero;"/>
            <path d="M85.578,36.291L86.835,35.095C90.529,32.026 95.213,30.305 100.041,30.305C105.551,30.305 110.737,32.457 114.645,36.365C114.83,36.55 115.008,36.741 115.186,36.934C115.408,37.173 115.625,37.417 115.835,37.667C116.045,37.915 116.248,38.168 116.445,38.426C117.951,40.39 119.08,42.575 119.799,44.919C119.885,45.199 119.967,45.482 120.041,45.767C120.114,46.048 120.177,46.332 120.239,46.616C120.549,48.051 120.705,49.516 120.705,50.97L120.705,56.089L122.205,56.089L122.205,50.97C122.205,49.368 122.03,47.807 121.706,46.301C121.639,45.995 121.571,45.691 121.492,45.389C121.413,45.083 121.325,44.779 121.233,44.479C120.451,41.931 119.22,39.58 117.635,37.513C117.424,37.237 117.206,36.966 116.981,36.7C116.756,36.432 116.524,36.17 116.286,35.913C116.095,35.707 115.904,35.503 115.706,35.305C111.692,31.291 106.151,28.805 100.041,28.805C93.628,28.805 87.846,31.546 83.795,35.913L85.578,36.291Z" style="fill:white;fill-rule:nonzero;"/>
            <path d="M88.425,37.506C95.834,31.058 107.017,31.904 113.467,39.311C116.042,42.27 117.542,45.897 117.802,49.751L117.802,56.089L119.302,56.089L119.302,49.701C119.017,45.467 117.389,41.534 114.597,38.326C107.606,30.296 95.381,29.451 87.35,36.443L86.985,36.867L88.425,37.506Z" style="fill:white;fill-rule:nonzero;"/>
            <path d="M108.577,121.315C106.135,123.032 103.165,124.045 99.959,124.045C96.754,124.045 93.783,123.032 91.342,121.315C91.075,121.128 90.816,120.933 90.563,120.729C90.314,120.529 90.069,120.322 89.833,120.106C89.668,119.955 89.505,119.801 89.347,119.643C87.8,118.095 86.589,116.212 85.832,114.114C85.731,113.834 85.64,113.548 85.555,113.26C85.469,112.968 85.393,112.672 85.325,112.372C85.078,111.297 84.945,110.179 84.945,109.031L84.945,103.98L83.445,103.968L83.445,109.031C83.445,110.258 83.585,111.494 83.862,112.706C83.937,113.035 84.022,113.361 84.116,113.684C84.209,114.001 84.31,114.315 84.421,114.623C85.24,116.89 86.576,118.993 88.286,120.703C88.46,120.877 88.639,121.046 88.821,121.213C89.08,121.45 89.348,121.677 89.622,121.898C89.901,122.122 90.187,122.336 90.479,122.542C93.272,124.507 96.55,125.545 99.959,125.545C103.052,125.545 106.037,124.691 108.649,123.066L110.072,122.068L108.577,121.315Z" style="fill:white;fill-rule:nonzero;"/>
            <path d="M114.422,123.709L113.165,124.905C109.471,127.974 104.786,129.696 99.959,129.696C94.45,129.696 89.263,127.543 85.355,123.635C85.17,123.45 84.991,123.26 84.814,123.067C84.591,122.828 84.375,122.583 84.164,122.333C83.955,122.085 83.752,121.832 83.555,121.574C82.048,119.61 80.92,117.426 80.2,115.082C80.115,114.801 80.033,114.518 79.959,114.233C79.886,113.953 79.822,113.669 79.761,113.384C79.451,111.949 79.295,110.485 79.295,109.031L79.295,103.968L77.795,103.968L77.795,109.031C77.795,110.633 77.97,112.194 78.294,113.699C78.36,114.006 78.429,114.31 78.507,114.611C78.587,114.917 78.674,115.221 78.767,115.522C79.549,118.069 80.78,120.42 82.365,122.487C82.576,122.763 82.794,123.035 83.018,123.301C83.244,123.569 83.476,123.831 83.714,124.088C83.905,124.293 84.096,124.498 84.294,124.696C88.308,128.709 93.849,131.195 99.959,131.195C106.372,131.195 112.154,128.455 116.205,124.088L114.422,123.709Z" style="fill:white;fill-rule:nonzero;"/>
            <path d="M111.575,122.495C104.166,128.943 92.983,128.096 86.533,120.69C83.958,117.731 82.458,114.104 82.198,110.25L82.198,103.968L80.698,103.968L80.699,110.3C80.983,114.533 82.611,118.466 85.403,121.674C92.394,129.704 104.619,130.55 112.65,123.558L113.015,123.133L111.575,122.495Z" style="fill:white;fill-rule:nonzero;"/>
        </g>
    </g>
</svg>
